<svg xmlns="http://www.w3.org/2000/svg" width="38.207" height="38.207" viewBox="0 0 38.207 38.207">
  <path id="Icon_awesome-info-circle" data-name="Icon awesome-info-circle" d="M19.666.563a19.1,19.1,0,1,0,19.1,19.1A19.106,19.106,0,0,0,19.666.563Zm0,8.473a3.235,3.235,0,1,1-3.235,3.235A3.235,3.235,0,0,1,19.666,9.036ZM23.979,28.6a.924.924,0,0,1-.924.924H16.277a.924.924,0,0,1-.924-.924V26.753a.924.924,0,0,1,.924-.924H17.2V20.9h-.924a.924.924,0,0,1-.924-.924V18.125a.924.924,0,0,1,.924-.924h4.93a.924.924,0,0,1,.924.924v7.7h.924a.924.924,0,0,1,.924.924Z" transform="translate(-0.563 -0.563)" fill="#359287"/>
</svg>
